<svg width="20" height="20" viewBox="0 0 20 20" fill="none" xmlns="http://www.w3.org/2000/svg">
<path d="M18.3334 4.58333C18.3334 4.58333 18.3334 15.026 18.3334 15.8333C18.3334 17.214 14.6024 18.3333 10 18.3333C5.39765 18.3333 1.6667 17.214 1.6667 15.8333C1.6667 15.0593 1.66669 4.58333 1.66669 4.58333" stroke="#8B63EF" stroke-linecap="round" stroke-linejoin="round"/>
<path d="M18.3334 12.0833C18.3334 13.464 14.6024 14.5833 10 14.5833C5.39765 14.5833 1.66669 13.464 1.66669 12.0833" stroke="#8B63EF" stroke-linecap="round" stroke-linejoin="round"/>
<path d="M18.3334 8.33333C18.3334 9.71404 14.6024 10.8333 10 10.8333C5.39765 10.8333 1.66669 9.71404 1.66669 8.33333" stroke="#8B63EF" stroke-linecap="round" stroke-linejoin="round"/>
<path d="M10 6.66667C14.6024 6.66667 18.3334 5.54738 18.3334 4.16667C18.3334 2.78596 14.6024 1.66667 10 1.66667C5.39765 1.66667 1.66669 2.78596 1.66669 4.16667C1.66669 5.54738 5.39765 6.66667 10 6.66667Z" stroke="#8B63EF" stroke-linecap="round" stroke-linejoin="round"/>
<circle cx="14.0741" cy="14.0741" r="5.92593" fill="#8B63EF"/>
<path fill-rule="evenodd" clip-rule="evenodd" d="M12.8536 12.1464C12.6583 11.9512 12.3417 11.9512 12.1464 12.1464C11.9512 12.3417 11.9512 12.6583 12.1464 12.8536L13.4596 14.1667L12.1464 15.4798C11.9512 15.675 11.9512 15.9916 12.1464 16.1869C12.3417 16.3821 12.6583 16.3821 12.8536 16.1869L14.1667 14.8738L15.4798 16.1869C15.675 16.3821 15.9916 16.3821 16.1869 16.1869C16.3821 15.9916 16.3821 15.675 16.1869 15.4798L14.8738 14.1667L16.1869 12.8536C16.3821 12.6583 16.3821 12.3417 16.1869 12.1464C15.9916 11.9512 15.675 11.9512 15.4798 12.1464L14.1667 13.4596L12.8536 12.1464Z" fill="white"/>
</svg>
